<svg xmlns="http://www.w3.org/2000/svg" style="display: none;">
  <symbol id="icon-light" viewBox="0 0 24 24">
    <path fill="currentColor" d="M12 2a1 1 0 0 1 1 1v2a1 1 0 0 1-2 0V3a1 1 0 0 1 1-1zm0 14a4 4 0 1 1 0-8 4 4 0 0 1 0 8zm-8-5a1 1 0 0 1 1-1h2a1 1 0 0 1 0 2H5a1 1 0 0 1-1-1zm11 0a1 1 0 0 1 1-1h2a1 1 0 0 1 0 2h-2a1 1 0 0 1-1-1zM7.757 7.757a1 1 0 0 1 1.414 0l1.414 1.414a1 1 0 0 1-1.414 1.414L7.757 9.171a1 1 0 0 1 0-1.414zm8.486 8.486a1 1 0 0 1 1.414 0l1.414 1.414a1 1 0 0 1-1.414 1.414l-1.414-1.414a1 1 0 0 1 0-1.414zM12 18a1 1 0 0 1 1 1v2a1 1 0 0 1-2 0v-2a1 1 0 0 1 1-1zm-8.485 2.121a1 1 0 0 1 0-1.414l1.414-1.414a1 1 0 0 1 1.414 1.414l-1.414 1.414a1 1 0 0 1-1.414 0zm15.556-15.556a1 1 0 0 1 0 1.414l-1.414 1.414a1 1 0 1 1-1.414-1.414l1.414-1.414a1 1 0 0 1 1.414 0z"/>
  </symbol>
  <symbol id="icon-heating" viewBox="0 0 24 24">
    <path fill="currentColor" d="M12 2c-.55 0-1 .45-1 1v4h2V3c0-.55-.45-1-1-1zm4 1h-2v4h2V3zm-8 4V3H6v4h2zm2 14c-4.42 0-8-3.58-8-8s3.58-8 8-8 8 3.58 8 8-3.58 8-8 8zM9 13H7v2h2v-2zm4 0h-2v2h2v-2zm4 0h-2v2h2v-2z"/>
  </symbol>
  <symbol id="icon-ac" viewBox="0 0 24 24">
    <path fill="currentColor" d="M12 12c2.21 0 4-1.79 4-4s-1.79-4-4-4-4 1.79-4 4 1.79 4 4 4zm0 2c-2.67 0-8 1.34-8 4v2h16v-2c0-2.66-5.33-4-8-4z"/>
  </symbol>
  <symbol id="icon-camera" viewBox="0 0 24 24">
    <path fill="currentColor" d="M12 9c-1.66 0-3 1.34-3 3s1.34 3 3 3 3-1.34 3-3-1.34-3-3-3zm7-4h-2.17l-1.19-1.35c-.32-.36-.82-.65-1.31-.65H9.67c-.49 0-.99.29-1.31.65L7.17 5H5c-1.1 0-2 .9-2 2v11c0 1.1.9 2 2 2h14c1.1 0 2-.9 2-2V7c0-1.1-.9-2-2-2zm-7 12c-2.76 0-5-2.24-5-5s2.24-5 5-5 5 2.24 5 5-2.24 5-5 5z"/>
  </symbol>
  <symbol id="icon-door" viewBox="0 0 24 24">
    <path fill="currentColor" d="M20 19V5c0-1.1-.9-2-2-2H6c-1.1 0-2 .9-2 2v14c0 1.1.9 2 2 2h12c1.1 0 2-.9 2-2zm-7-9h2v2h-2v-2z"/>
  </symbol>
  <symbol id="icon-alarm" viewBox="0 0 24 24">
    <path fill="currentColor" d="M12 1L3 5v6c0 5.55 3.84 10.74 9 12 5.16-1.26 9-6.45 9-12V5l-9-4zm-1 6h2v6h-2V7zm0 8h2v2h-2v-2z"/>
  </symbol>
  <symbol id="icon-garage" viewBox="0 0 24 24">
    <path fill="currentColor" d="M22 9V7h-2V5c0-1.1-.9-2-2-2H6c-1.1 0-2 .9-2 2v2H2v2h2v10c0 1.1.9 2 2 2h12c1.1 0 2-.9 2-2V9h2zM7 5h10v2H7V5zm10 14H7V9h10v10zm-1-8h-8v2h8v-2zm0 3h-8v2h8v-2z"/>
  </symbol>
  <symbol id="icon-garden" viewBox="0 0 24 24">
    <path fill="currentColor" d="M12 12c2.21 0 4-1.79 4-4s-1.79-4-4-4-4 1.79-4 4 1.79 4 4 4zm0 2c-2.67 0-8 1.34-8 4v2h16v-2c0-2.66-5.33-4-8-4zm0-2c3.31 0 6-2.69 6-6s-2.69-6-6-6-6 2.69-6 6 2.69 6 6 6z"/>
  </symbol>
  <symbol id="icon-menu" viewBox="0 0 24 24">
    <path fill="currentColor" d="M3 18h18v-2H3v2zm0-5h18v-2H3v2zm0-7v2h18V6H3z"/>
  </symbol>
</svg>
