<svg xmlns="http://www.w3.org/2000/svg" style="display: none;">
  <symbol id="icon-light" viewBox="0 0 24 24">
    <path fill="currentColor" d="M12 2a1 1 0 0 1 1 1v2a1 1 0 0 1-2 0V3a1 1 0 0 1 1-1zm0 14a4 4 0 1 1 0-8 4 4 0 0 1 0 8zm-8-5a1 1 0 0 1 1-1h2a1 1 0 0 1 0 2H5a1 1 0 0 1-1-1zm11 0a1 1 0 0 1 1-1h2a1 1 0 0 1 0 2h-2a1 1 0 0 1-1-1zM7.757 7.757a1 1 0 0 1 1.414 0l1.414 1.414a1 1 0 0 1-1.414 1.414L7.757 9.171a1 1 0 0 1 0-1.414zm8.486 8.486a1 1 0 0 1 1.414 0l1.414 1.414a1 1 0 0 1-1.414 1.414l-1.414-1.414a1 1 0 0 1 0-1.414zM12 18a1 1 0 0 1 1 1v2a1 1 0 0 1-2 0v-2a1 1 0 0 1 1-1zm-8.485 2.121a1 1 0 0 1 0-1.414l1.414-1.414a1 1 0 0 1 1.414 1.414l-1.414 1.414a1 1 0 0 1-1.414 0zm15.556-15.556a1 1 0 0 1 0 1.414l-1.414 1.414a1 1 0 1 1-1.414-1.414l1.414-1.414a1 1 0 0 1 1.414 0z"/>
  </symbol>
  <symbol id="icon-heating" viewBox="0 0 24 24">
    <path fill="currentColor" d="M12 2c-.55 0-1 .45-1 1v4h2V3c0-.55-.45-1-1-1zm4 1h-2v4h2V3zm-8 4V3H6v4h2zm2 14c-4.42 0-8-3.58-8-8s3.58-8 8-8 8 3.58 8 8-3.58 8-8 8zM9 13H7v2h2v-2zm4 0h-2v2h2v-2zm4 0h-2v2h2v-2z"/>
  </symbol>
  <symbol id="icon-ac" viewBox="0 0 24 24">
    <path fill="currentColor" d="M12 12c2.21 0 4-1.79 4-4s-1.79-4-4-4-4 1.79-4 4 1.79 4 4 4zm0 2c-2.67 0-8 1.34-8 4v2h16v-2c0-2.66-5.33-4-8-4z"/>
  </symbol>
  <symbol id="icon-camera" viewBox="0 0 24 24">
    <path fill="currentColor" d="M12 9c-1.66 0-3 1.34-3 3s1.34 3 3 3 3-1.34 3-3-1.34-3-3-3zm7-4h-2.17l-1.19-1.35c-.32-.36-.82-.65-1.31-.65H9.67c-.49 0-.99.29-1.31.65L7.17 5H5c-1.1 0-2 .9-2 2v11c0 1.1.9 2 2 2h14c1.1 0 2-.9 2-2V7c0-1.1-.9-2-2-2zm-7 12c-2.76 0-5-2.24-5-5s2.24-5 5-5 5 2.24 5 5-2.24 5-5 5z"/>
  </symbol>
  <symbol id="icon-door" viewBox="0 0 24 24">
    <path fill="currentColor" d="M20 19V5c0-1.1-.9-2-2-2H6c-1.1 0-2 .9-2 2v14c0 1.1.9 2 2 2h12c1.1 0 2-.9 2-2zm-7-9h2v2h-2v-2z"/>
  </symbol>
  <symbol id="icon-alarm" viewBox="0 0 24 24">
    <path fill="currentColor" d="M12 1L3 5v6c0 5.55 3.84 10.74 9 12 5.16-1.26 9-6.45 9-12V5l-9-4zm-1 6h2v6h-2V7zm0 8h2v2h-2v-2z"/>
  </symbol>
  <symbol id="icon-garage" viewBox="0 0 24 24">
    <path fill="currentColor" d="M22 9V7h-2V5c0-1.1-.9-2-2-2H6c-1.1 0-2 .9-2 2v2H2v2h2v10c0 1.1.9 2 2 2h12c1.1 0 2-.9 2-2V9h2zM7 5h10v2H7V5zm10 14H7V9h10v10zm-1-8h-8v2h8v-2zm0 3h-8v2h8v-2z"/>
  </symbol>
  <symbol id="icon-garden" viewBox="0 0 24 24">
    <path fill="currentColor" d="M12 12c2.21 0 4-1.79 4-4s-1.79-4-4-4-4 1.79-4 4 1.79 4 4 4zm0 2c-2.67 0-8 1.34-8 4v2h16v-2c0-2.66-5.33-4-8-4zm0-2c3.31 0 6-2.69 6-6s-2.69-6-6-6-6 2.69-6 6 2.69 6 6 6z"/>
  </symbol>
  <symbol id="icon-home" viewBox="0 0 24 24">
    <path fill="currentColor" d="M10 20v-6h4v6h5v-8h3L12 3 2 12h3v8z"/>
  </symbol>
  <symbol id="icon-devices" viewBox="0 0 24 24">
    <path fill="currentColor" d="M4 6h18V4H4c-1.1 0-2 .9-2 2v11H0v3h14v-3H4V6zm19 2h-6c-.55 0-1 .45-1 1v10c0 .55.45 1 1 1h6c.55 0 1-.45 1-1V9c0-.55-.45-1-1-1zm-1 9h-4v-7h4v7z"/>
  </symbol>
  <symbol id="icon-user" viewBox="0 0 24 24">
    <path fill="currentColor" d="M12 2C6.48 2 2 6.48 2 12s4.48 10 10 10 10-4.48 10-10S17.52 2 12 2zm0 3c1.66 0 3 1.34 3 3s-1.34 3-3 3-3-1.34-3-3 1.34-3 3-3zm0 14.2c-2.5 0-4.71-1.28-6-3.22.03-1.99 4-3.08 6-3.08s5.97 1.09 6 3.08c-1.29 1.94-3.5 3.22-6 3.22z"/>
  </symbol>
  <symbol id="icon-logout" viewBox="0 0 24 24">
    <path fill="currentColor" d="M17 7l-1.41 1.41L18.17 11H8v2h10.17l-2.58 2.58L17 17l5-5zM4 5h8V3H4c-1.1 0-2 .9-2 2v14c0 1.1.9 2 2 2h8v-2H4V5z"/>
  </symbol>
  <symbol id="icon-weather" viewBox="0 0 24 24">
    <path fill="currentColor" d="M19.35 10.04C18.67 6.59 15.64 4 12 4 9.11 4 6.6 5.64 5.35 8.04 2.34 8.36 0 10.91 0 14c0 3.31 2.69 6 6 6h13c2.76 0 5-2.24 5-5 0-2.64-2.05-4.78-4.65-4.96zM19 18H6c-2.21 0-4-1.79-4-4s1.79-4 4-4 4 1.79 4 4h2c0-2.76-2.24-5-5-5-2.42 0-4.44 1.72-4.9 4.02C1.17 11.53 0 12.63 0 14c0 2.21 1.79 4 4 4h13c1.66 0 3-1.34 3-3 0-1.66-1.34-3-3-3-.12 0-.24.01-.36.03l-.33.05-.08-.34C16.1 9.9 14.19 8.5 12 8.5c-1.71 0-3.32.88-4.29 2.34l-.44.67-.78-.18C5.62 11.13 4.84 11 4 11c-1.66 0-3 1.34-3 3 0 1.5.83 2.76 2.06 3.29-.04.23-.06.47-.06.71 0 2.21 1.79 4 4 4h13c2.76 0 5-2.24 5-5s-2.24-5-5-5z"/>
  </symbol>
  <symbol id="icon-humidity" viewBox="0 0 24 24">
    <path fill="currentColor" d="M12 2S7 7 7 12c0 2.76 2.24 5 5 5s5-2.24 5-5c0-5-5-10-5-10zm0 13c-1.66 0-3-1.34-3-3s3-6 3-6 3 4.34 3 6-1.34 3-3 3z"/>
  </symbol>
  <symbol id="icon-temp" viewBox="0 0 24 24">
    <path fill="currentColor" d="M15 13V5c0-1.66-1.34-3-3-3S9 3.34 9 5v8c-1.21.91-2 2.37-2 4 0 2.76 2.24 5 5 5s5-2.24 5-5c0-1.63-.79-3.09-2-4zm-3 7c-1.66 0-3-1.34-3-3 0-1.31.84-2.41 2-2.82V5c0-.55.45-1 1-1s1 .45 1 1v7.18c1.16.41 2 1.51 2 2.82 0 1.66-1.34 3-3 3z"/>
  </symbol>
  <symbol id="icon-power" viewBox="0 0 24 24">
    <path fill="currentColor" d="M7 2v11h3v9l7-12h-4l4-8z"/>
  </symbol>
  <symbol id="icon-shield" viewBox="0 0 24 24">
    <path fill="currentColor" d="M12 1L3 5v6c0 5.55 3.84 10.74 9 12 5.16-1.26 9-6.45 9-12V5l-9-4zm0 10.99h7c-.53 4.12-3.28 7.79-7 8.94V12H5V6.3l7-3.11v8.8z"/>
  </symbol>
  <symbol id="icon-bulb" viewBox="0 0 24 24">
    <path fill="currentColor" d="M12 2c-3.86 0-7 3.14-7 7 0 2.31 1.13 4.36 2.87 5.64.08.06.13.15.13.25V17c0 .55.45 1 1 1h6c.55 0 1-.45 1-1v-2.11c0-.1.05-.19.13-.25C17.87 13.36 19 11.31 19 9c0-3.86-3.14-7-7-7zm2 14h-4v-1h4v1zm2.14-3.07c-.44.33-.7.84-.7 1.39V15H8.56v-.68c0-.55-.26-1.06-.7-1.39C6.73 12.08 6 10.61 6 9c0-3.31 2.69-6 6-6s6 2.69 6 6c0 1.61-.73 3.08-1.86 3.93z"/>
  </symbol>
</svg>
